<svg width="40" height="40" viewBox="0 0 40 40" xmlns="http://www.w3.org/2000/svg">
    <g fill="none" fill-rule="evenodd">
        <path d="M9.754 29.709a8.129 8.129 0 0 1 0-11.495l.662-.662a6.649 6.649 0 0 1 9.402 0l2.093 2.093a6.647 6.647 0 0 1 0 9.402l-.662.662a8.129 8.129 0 0 1-11.495 0" fill="#FFF"/>
        <path d="M9.754 29.709h0a8.129 8.129 0 0 1 0-11.495l.662-.662a6.649 6.649 0 0 1 9.402 0l2.093 2.093a6.647 6.647 0 0 1 0 9.402l-.662.662a8.129 8.129 0 0 1-11.495 0z" stroke="#F8274C" stroke-width="2" stroke-linecap="round" stroke-linejoin="round"/>
        <path d="M12.736 19.479a2.298 2.298 0 0 1-1.942-2.608l1.156-7.904a2.3 2.3 0 1 1 4.552.666l-1.158 7.904a2.299 2.299 0 0 1-2.608 1.942" fill="#FFF"/>
        <path d="M12.736 19.479h0a2.298 2.298 0 0 1-1.942-2.608l1.156-7.904a2.3 2.3 0 1 1 4.552.666l-1.158 7.904a2.299 2.299 0 0 1-2.608 1.942z" stroke="#F8274C" stroke-width="2" stroke-linecap="round" stroke-linejoin="round"/>
        <path d="m16.621 21.235-.048-.016a2.14 2.14 0 0 1-1.346-2.71l3.358-9.988a2.14 2.14 0 0 1 2.71-1.346l.047.017A2.138 2.138 0 0 1 22.687 9.9l-3.357 9.989a2.14 2.14 0 0 1-2.709 1.346" fill="#FFF"/>
        <path d="m16.621 21.235-.048-.016a2.14 2.14 0 0 1-1.346-2.71l3.358-9.988a2.14 2.14 0 0 1 2.71-1.346l.047.017A2.138 2.138 0 0 1 22.687 9.9l-3.357 9.989a2.14 2.14 0 0 1-2.709 1.346z" stroke="#F8274C" stroke-width="2" stroke-linecap="round" stroke-linejoin="round"/>
        <path d="M18.684 23.213a2.242 2.242 0 0 1-.151-3.166l2.915-3.209a2.242 2.242 0 0 1 3.317 3.015l-2.915 3.208a2.242 2.242 0 0 1-3.166.152" fill="#FFF"/>
        <path d="M18.684 23.213h0a2.242 2.242 0 0 1-.151-3.166l2.915-3.209a2.242 2.242 0 0 1 3.317 3.015l-2.915 3.208a2.242 2.242 0 0 1-3.166.152z" stroke="#F8274C" stroke-width="2" stroke-linecap="round" stroke-linejoin="round"/>
        <path d="M22.001 26.227a2.24 2.24 0 0 1-.15-3.166l1.91-2.102a2.24 2.24 0 0 1 3.164-.151 2.24 2.24 0 0 1 .152 3.165l-1.91 2.103a2.24 2.24 0 0 1-3.166.151" fill="#FFF"/>
        <path d="M22.001 26.227h0a2.24 2.24 0 0 1-.15-3.166l1.91-2.102a2.24 2.24 0 0 1 3.164-.151 2.24 2.24 0 0 1 .152 3.165l-1.91 2.103a2.24 2.24 0 0 1-3.166.151z" stroke="#F8274C" stroke-width="2" stroke-linecap="round" stroke-linejoin="round"/>
        <path d="M13.2 24.74c-.015-1.475-.32-2.36-.872-3.405 3.093.205 5.55.816 6.017-1.29.224-1.008-.225-2.185-1.943-2.872-2.404-.962-6.2-1.75-8.056.483-2.223 2.676-1.209 7.382-.377 9.364" fill="#FFF"/>
        <path d="M13.2 24.74c-.015-1.475-.32-2.36-.872-3.405 3.093.205 5.55.816 6.017-1.29.224-1.008-.225-2.185-1.943-2.872-2.404-.962-6.2-1.75-8.056.483-2.223 2.676-1.209 7.382-.377 9.364" stroke="#F8274C" stroke-width="2" stroke-linecap="round" stroke-linejoin="round"/>
        <path stroke="#00E6D4" stroke-width="2" stroke-linecap="round" stroke-linejoin="round" d="m30.718 10.365-2.159 1.955M32.547 15.696l-2.909-.145"/>
    </g>
</svg>
