<svg xmlns="http://www.w3.org/2000/svg" width="46.408" height="44.357" viewBox="0 0 46.408 44.357">
    <g>
        <path fill="#eee" stroke="#e0e0e0" d="M1168.662 681.8l6.165-12.567a1.5 1.5 0 0 1 2.7-.007l6.225 12.538 13.858 1.98a1.505 1.505 0 0 1 .84 2.565l-10 9.795 2.4 13.791a1.5 1.5 0 0 1-2.18 1.592L1176.262 705l-12.375 6.543a1.5 1.5 0 0 1-2.187-1.581l2.333-13.8-10.047-9.747a1.5 1.5 0 0 1 .828-2.569z" transform="translate(.516 .501) translate(-1153.527 -668.39)"/>
        <path fill="#ffc400" stroke="#ffc400" d="M1176.262 705l-12.375 6.543a1.5 1.5 0 0 1-2.187-1.581l2.333-13.8-10.047-9.747a1.5 1.5 0 0 1 .828-2.569l13.848-2.046 6.165-12.567a1.486 1.486 0 0 1 1.348-.842z" transform="translate(.516 .501) translate(-1153.527 -668.39)"/>
    </g>
</svg>
