<svg width="12" height="12" viewBox="0 0 12 12" xmlns="http://www.w3.org/2000/svg">
    <g fill="none" fill-rule="evenodd">
        <path d="m6 8.52-2.635 1.744a.4.4 0 0 1-.606-.44l.844-3.045-2.472-1.967a.4.4 0 0 1 .231-.713l3.157-.138 1.106-2.959a.4.4 0 0 1 .75 0l1.106 2.96 3.157.137a.4.4 0 0 1 .231.713L8.397 6.779l.844 3.044a.4.4 0 0 1-.606.44L6 8.52z" fill="#F1F1F1"/>
        <path d="m6 8.52-2.635 1.744a.4.4 0 0 1-.606-.44l.844-3.045-2.472-1.967a.4.4 0 0 1 .231-.713l3.157-.138 1.106-2.959A.4.4 0 0 1 6.14.767" fill="#F52C50"/>
    </g>
</svg>
